<?xml version="1.0" encoding="utf-8" standalone="no"?>
<!DOCTYPE svg PUBLIC "-//W3C//DTD SVG 1.1//EN"
  "http://www.w3.org/Graphics/SVG/1.1/DTD/svg11.dtd">
<svg xmlns:xlink="http://www.w3.org/1999/xlink" width="540pt" height="316.8pt" viewBox="0 0 540 316.8" xmlns="http://www.w3.org/2000/svg" version="1.1">
 <metadata>
  <rdf:RDF xmlns:dc="http://purl.org/dc/elements/1.1/" xmlns:cc="http://creativecommons.org/ns#" xmlns:rdf="http://www.w3.org/1999/02/22-rdf-syntax-ns#">
   <cc:Work>
    <dc:type rdf:resource="http://purl.org/dc/dcmitype/StillImage"/>
    <dc:date>2026-09-26T19:55:05.140408</dc:date>
    <dc:format>image/svg+xml</dc:format>
    <dc:creator>
     <cc:Agent>
      <dc:title>Matplotlib v3.11.2, https://matplotlib.org/</dc:title>
     </cc:Agent>
    </dc:creator>
   </cc:Work>
  </rdf:RDF>
 </metadata>
 <defs>
  <style type="text/css">*{stroke-linejoin: round; stroke-linecap: butt}</style>
 </defs>
 <g id="figure_1">
  <g id="patch_1">
   <path d="M 0 316.8 
L 540 316.8 
L 540 0 
L 0 0 
z
" style="fill: #fcfcfb"/>
  </g>
  <g id="axes_1">
   <g id="patch_2">
    <path d="M 45.902344 279.5 
L 529.2 279.5 
L 529.2 42.88 
L 45.902344 42.88 
z
" style="fill: #fcfcfb"/>
   </g>
   <g id="matplotlib.axis_1">
    <g id="xtick_1">
     <g id="line2d_1"/>
     <g id="text_1">
      <!-- 1 -->
      <g style="fill: #52514e" transform="translate(65.007294 289.837891) scale(0.09 -0.09)">
       <defs>
        <path id="DejaVuSans-14" d="M 794 531 
L 1825 531 
L 1825 4091 
L 703 3866 
L 703 4441 
L 1819 4666 
L 2450 4666 
L 2450 531 
L 3481 531 
L 3481 0 
L 794 0 
L 794 531 
z
" transform="scale(0.015625)"/>
       </defs>
       <use xlink:href="#DejaVuSans-14"/>
      </g>
     </g>
    </g>
    <g id="xtick_2">
     <g id="line2d_2"/>
     <g id="text_2">
      <!-- 8 -->
      <g style="fill: #52514e" transform="translate(284.688047 289.837891) scale(0.09 -0.09)">
       <defs>
        <path id="DejaVuSans-1b" d="M 2034 2216 
Q 1584 2216 1326 1975 
Q 1069 1734 1069 1313 
Q 1069 891 1326 650 
Q 1584 409 2034 409 
Q 2484 409 2743 651 
Q 3003 894 3003 1313 
Q 3003 1734 2745 1975 
Q 2488 2216 2034 2216 
z
M 1403 2484 
Q 997 2584 770 2862 
Q 544 3141 544 3541 
Q 544 4100 942 4425 
Q 1341 4750 2034 4750 
Q 2731 4750 3128 4425 
Q 3525 4100 3525 3541 
Q 3525 3141 3298 2862 
Q 3072 2584 2669 2484 
Q 3125 2378 3379 2068 
Q 3634 1759 3634 1313 
Q 3634 634 3220 271 
Q 2806 -91 2034 -91 
Q 1263 -91 848 271 
Q 434 634 434 1313 
Q 434 1759 690 2068 
Q 947 2378 1403 2484 
z
M 1172 3481 
Q 1172 3119 1398 2916 
Q 1625 2713 2034 2713 
Q 2441 2713 2670 2916 
Q 2900 3119 2900 3481 
Q 2900 3844 2670 4047 
Q 2441 4250 2034 4250 
Q 1625 4250 1398 4047 
Q 1172 3844 1172 3481 
z
" transform="scale(0.015625)"/>
       </defs>
       <use xlink:href="#DejaVuSans-1b"/>
      </g>
     </g>
    </g>
    <g id="xtick_3">
     <g id="line2d_3"/>
     <g id="text_3">
      <!-- 32 -->
      <g style="fill: #52514e" transform="translate(428.278757 289.837891) scale(0.09 -0.09)">
       <defs>
        <path id="DejaVuSans-16" d="M 2597 2516 
Q 3050 2419 3304 2112 
Q 3559 1806 3559 1356 
Q 3559 666 3084 287 
Q 2609 -91 1734 -91 
Q 1441 -91 1130 -33 
Q 819 25 488 141 
L 488 750 
Q 750 597 1062 519 
Q 1375 441 1716 441 
Q 2309 441 2620 675 
Q 2931 909 2931 1356 
Q 2931 1769 2642 2001 
Q 2353 2234 1838 2234 
L 1294 2234 
L 1294 2753 
L 1863 2753 
Q 2328 2753 2575 2939 
Q 2822 3125 2822 3475 
Q 2822 3834 2567 4026 
Q 2313 4219 1838 4219 
Q 1578 4219 1281 4162 
Q 984 4106 628 3988 
L 628 4550 
Q 988 4650 1302 4700 
Q 1616 4750 1894 4750 
Q 2613 4750 3031 4423 
Q 3450 4097 3450 3541 
Q 3450 3153 3228 2886 
Q 3006 2619 2597 2516 
z
" transform="scale(0.015625)"/>
        <path id="DejaVuSans-15" d="M 1228 531 
L 3431 531 
L 3431 0 
L 469 0 
L 469 531 
Q 828 903 1448 1529 
Q 2069 2156 2228 2338 
Q 2531 2678 2651 2914 
Q 2772 3150 2772 3378 
Q 2772 3750 2511 3984 
Q 2250 4219 1831 4219 
Q 1534 4219 1204 4116 
Q 875 4013 500 3803 
L 500 4441 
Q 881 4594 1212 4672 
Q 1544 4750 1819 4750 
Q 2544 4750 2975 4387 
Q 3406 4025 3406 3419 
Q 3406 3131 3298 2873 
Q 3191 2616 2906 2266 
Q 2828 2175 2409 1742 
Q 1991 1309 1228 531 
z
" transform="scale(0.015625)"/>
       </defs>
       <use xlink:href="#DejaVuSans-16"/>
       <use xlink:href="#DejaVuSans-15" transform="translate(63.625 0)"/>
      </g>
     </g>
    </g>
    <g id="xtick_4">
     <g id="line2d_4"/>
     <g id="text_4">
      <!-- 64 -->
      <g style="fill: #52514e" transform="translate(501.505675 289.837891) scale(0.09 -0.09)">
       <defs>
        <path id="DejaVuSans-19" d="M 2113 2584 
Q 1688 2584 1439 2293 
Q 1191 2003 1191 1497 
Q 1191 994 1439 701 
Q 1688 409 2113 409 
Q 2538 409 2786 701 
Q 3034 994 3034 1497 
Q 3034 2003 2786 2293 
Q 2538 2584 2113 2584 
z
M 3366 4563 
L 3366 3988 
Q 3128 4100 2886 4159 
Q 2644 4219 2406 4219 
Q 1781 4219 1451 3797 
Q 1122 3375 1075 2522 
Q 1259 2794 1537 2939 
Q 1816 3084 2150 3084 
Q 2853 3084 3261 2657 
Q 3669 2231 3669 1497 
Q 3669 778 3244 343 
Q 2819 -91 2113 -91 
Q 1303 -91 875 529 
Q 447 1150 447 2328 
Q 447 3434 972 4092 
Q 1497 4750 2381 4750 
Q 2619 4750 2861 4703 
Q 3103 4656 3366 4563 
z
" transform="scale(0.015625)"/>
        <path id="DejaVuSans-17" d="M 2419 4116 
L 825 1625 
L 2419 1625 
L 2419 4116 
z
M 2253 4666 
L 3047 4666 
L 3047 1625 
L 3713 1625 
L 3713 1100 
L 3047 1100 
L 3047 0 
L 2419 0 
L 2419 1100 
L 313 1100 
L 313 1709 
L 2253 4666 
z
" transform="scale(0.015625)"/>
       </defs>
       <use xlink:href="#DejaVuSans-19"/>
       <use xlink:href="#DejaVuSans-17" transform="translate(63.625 0)"/>
      </g>
     </g>
    </g>
    <g id="text_5">
     <!-- concurrent requests -->
     <g style="fill: #52514e" transform="translate(237.337109 303.597656) scale(0.1 -0.1)">
      <defs>
       <path id="DejaVuSans-46" d="M 3122 3366 
L 3122 2828 
Q 2878 2963 2633 3030 
Q 2388 3097 2138 3097 
Q 1578 3097 1268 2742 
Q 959 2388 959 1747 
Q 959 1106 1268 751 
Q 1578 397 2138 397 
Q 2388 397 2633 464 
Q 2878 531 3122 666 
L 3122 134 
Q 2881 22 2623 -34 
Q 2366 -91 2075 -91 
Q 1284 -91 818 406 
Q 353 903 353 1747 
Q 353 2603 823 3093 
Q 1294 3584 2113 3584 
Q 2378 3584 2631 3529 
Q 2884 3475 3122 3366 
z
" transform="scale(0.015625)"/>
       <path id="DejaVuSans-52" d="M 1959 3097 
Q 1497 3097 1228 2736 
Q 959 2375 959 1747 
Q 959 1119 1226 758 
Q 1494 397 1959 397 
Q 2419 397 2687 759 
Q 2956 1122 2956 1747 
Q 2956 2369 2687 2733 
Q 2419 3097 1959 3097 
z
M 1959 3584 
Q 2709 3584 3137 3096 
Q 3566 2609 3566 1747 
Q 3566 888 3137 398 
Q 2709 -91 1959 -91 
Q 1206 -91 779 398 
Q 353 888 353 1747 
Q 353 2609 779 3096 
Q 1206 3584 1959 3584 
z
" transform="scale(0.015625)"/>
       <path id="DejaVuSans-51" d="M 3513 2113 
L 3513 0 
L 2938 0 
L 2938 2094 
Q 2938 2591 2744 2837 
Q 2550 3084 2163 3084 
Q 1697 3084 1428 2787 
Q 1159 2491 1159 1978 
L 1159 0 
L 581 0 
L 581 3500 
L 1159 3500 
L 1159 2956 
Q 1366 3272 1645 3428 
Q 1925 3584 2291 3584 
Q 2894 3584 3203 3211 
Q 3513 2838 3513 2113 
z
" transform="scale(0.015625)"/>
       <path id="DejaVuSans-58" d="M 544 1381 
L 544 3500 
L 1119 3500 
L 1119 1403 
Q 1119 906 1312 657 
Q 1506 409 1894 409 
Q 2359 409 2629 706 
Q 2900 1003 2900 1516 
L 2900 3500 
L 3475 3500 
L 3475 0 
L 2900 0 
L 2900 538 
Q 2691 219 2414 64 
Q 2138 -91 1772 -91 
Q 1169 -91 856 284 
Q 544 659 544 1381 
z
M 1991 3584 
L 1991 3584 
z
" transform="scale(0.015625)"/>
       <path id="DejaVuSans-55" d="M 2631 2963 
Q 2534 3019 2420 3045 
Q 2306 3072 2169 3072 
Q 1681 3072 1420 2755 
Q 1159 2438 1159 1844 
L 1159 0 
L 581 0 
L 581 3500 
L 1159 3500 
L 1159 2956 
Q 1341 3275 1631 3429 
Q 1922 3584 2338 3584 
Q 2397 3584 2469 3576 
Q 2541 3569 2628 3553 
L 2631 2963 
z
" transform="scale(0.015625)"/>
       <path id="DejaVuSans-48" d="M 3597 1894 
L 3597 1613 
L 953 1613 
Q 991 1019 1311 708 
Q 1631 397 2203 397 
Q 2534 397 2845 478 
Q 3156 559 3463 722 
L 3463 178 
Q 3153 47 2828 -22 
Q 2503 -91 2169 -91 
Q 1331 -91 842 396 
Q 353 884 353 1716 
Q 353 2575 817 3079 
Q 1281 3584 2069 3584 
Q 2775 3584 3186 3129 
Q 3597 2675 3597 1894 
z
M 3022 2063 
Q 3016 2534 2758 2815 
Q 2500 3097 2075 3097 
Q 1594 3097 1305 2825 
Q 1016 2553 972 2059 
L 3022 2063 
z
" transform="scale(0.015625)"/>
       <path id="DejaVuSans-57" d="M 1172 4494 
L 1172 3500 
L 2356 3500 
L 2356 3053 
L 1172 3053 
L 1172 1153 
Q 1172 725 1289 603 
Q 1406 481 1766 481 
L 2356 481 
L 2356 0 
L 1766 0 
Q 1100 0 847 248 
Q 594 497 594 1153 
L 594 3053 
L 172 3053 
L 172 3500 
L 594 3500 
L 594 4494 
L 1172 4494 
z
" transform="scale(0.015625)"/>
       <path id="DejaVuSans-3" transform="scale(0.015625)"/>
       <path id="DejaVuSans-54" d="M 947 1747 
Q 947 1113 1208 752 
Q 1469 391 1925 391 
Q 2381 391 2643 752 
Q 2906 1113 2906 1747 
Q 2906 2381 2643 2742 
Q 2381 3103 1925 3103 
Q 1469 3103 1208 2742 
Q 947 2381 947 1747 
z
M 2906 525 
Q 2725 213 2448 61 
Q 2172 -91 1784 -91 
Q 1150 -91 751 415 
Q 353 922 353 1747 
Q 353 2572 751 3078 
Q 1150 3584 1784 3584 
Q 2172 3584 2448 3432 
Q 2725 3281 2906 2969 
L 2906 3500 
L 3481 3500 
L 3481 -1331 
L 2906 -1331 
L 2906 525 
z
" transform="scale(0.015625)"/>
       <path id="DejaVuSans-56" d="M 2834 3397 
L 2834 2853 
Q 2591 2978 2328 3040 
Q 2066 3103 1784 3103 
Q 1356 3103 1142 2972 
Q 928 2841 928 2578 
Q 928 2378 1081 2264 
Q 1234 2150 1697 2047 
L 1894 2003 
Q 2506 1872 2764 1633 
Q 3022 1394 3022 966 
Q 3022 478 2636 193 
Q 2250 -91 1575 -91 
Q 1294 -91 989 -36 
Q 684 19 347 128 
L 347 722 
Q 666 556 975 473 
Q 1284 391 1588 391 
Q 1994 391 2212 530 
Q 2431 669 2431 922 
Q 2431 1156 2273 1281 
Q 2116 1406 1581 1522 
L 1381 1569 
Q 847 1681 609 1914 
Q 372 2147 372 2553 
Q 372 3047 722 3315 
Q 1072 3584 1716 3584 
Q 2034 3584 2315 3537 
Q 2597 3491 2834 3397 
z
" transform="scale(0.015625)"/>
      </defs>
      <use xlink:href="#DejaVuSans-46"/>
      <use xlink:href="#DejaVuSans-52" transform="translate(54.984375 0)"/>
      <use xlink:href="#DejaVuSans-51" transform="translate(116.171875 0)"/>
      <use xlink:href="#DejaVuSans-46" transform="translate(179.546875 0)"/>
      <use xlink:href="#DejaVuSans-58" transform="translate(234.53125 0)"/>
      <use xlink:href="#DejaVuSans-55" transform="translate(297.90625 0)"/>
      <use xlink:href="#DejaVuSans-55" transform="translate(337.265625 0)"/>
      <use xlink:href="#DejaVuSans-48" transform="translate(376.171875 0)"/>
      <use xlink:href="#DejaVuSans-51" transform="translate(437.703125 0)"/>
      <use xlink:href="#DejaVuSans-57" transform="translate(501.078125 0)"/>
      <use xlink:href="#DejaVuSans-3" transform="translate(540.28125 0)"/>
      <use xlink:href="#DejaVuSans-55" transform="translate(572.0625 0)"/>
      <use xlink:href="#DejaVuSans-48" transform="translate(610.96875 0)"/>
      <use xlink:href="#DejaVuSans-54" transform="translate(672.5 0)"/>
      <use xlink:href="#DejaVuSans-58" transform="translate(735.984375 0)"/>
      <use xlink:href="#DejaVuSans-48" transform="translate(799.359375 0)"/>
      <use xlink:href="#DejaVuSans-56" transform="translate(860.890625 0)"/>
      <use xlink:href="#DejaVuSans-57" transform="translate(912.984375 0)"/>
      <use xlink:href="#DejaVuSans-56" transform="translate(952.1875 0)"/>
     </g>
    </g>
   </g>
   <g id="matplotlib.axis_2">
    <g id="ytick_1">
     <g id="line2d_5">
      <path d="M 45.902344 279.5 
L 529.2 279.5 
" clip-path="url(#p7cb661072b)" style="fill: none; stroke: #e4e3dd; stroke-width: 0.8; stroke-linecap: square"/>
     </g>
     <g id="line2d_6"/>
     <g id="text_6">
      <!-- 0 -->
      <g style="fill: #52514e" transform="translate(36.676094 282.918945) scale(0.09 -0.09)">
       <defs>
        <path id="DejaVuSans-13" d="M 2034 4250 
Q 1547 4250 1301 3770 
Q 1056 3291 1056 2328 
Q 1056 1369 1301 889 
Q 1547 409 2034 409 
Q 2525 409 2770 889 
Q 3016 1369 3016 2328 
Q 3016 3291 2770 3770 
Q 2525 4250 2034 4250 
z
M 2034 4750 
Q 2819 4750 3233 4129 
Q 3647 3509 3647 2328 
Q 3647 1150 3233 529 
Q 2819 -91 2034 -91 
Q 1250 -91 836 529 
Q 422 1150 422 2328 
Q 422 3509 836 4129 
Q 1250 4750 2034 4750 
z
" transform="scale(0.015625)"/>
       </defs>
       <use xlink:href="#DejaVuSans-13"/>
      </g>
     </g>
    </g>
    <g id="ytick_2">
     <g id="line2d_7">
      <path d="M 45.902344 229.385632 
L 529.2 229.385632 
" clip-path="url(#p7cb661072b)" style="fill: none; stroke: #e4e3dd; stroke-width: 0.8; stroke-linecap: square"/>
     </g>
     <g id="line2d_8"/>
     <g id="text_7">
      <!-- 100 -->
      <g style="fill: #52514e" transform="translate(25.223594 232.804577) scale(0.09 -0.09)">
       <use xlink:href="#DejaVuSans-14"/>
       <use xlink:href="#DejaVuSans-13" transform="translate(63.625 0)"/>
       <use xlink:href="#DejaVuSans-13" transform="translate(127.25 0)"/>
      </g>
     </g>
    </g>
    <g id="ytick_3">
     <g id="line2d_9">
      <path d="M 45.902344 179.271264 
L 529.2 179.271264 
" clip-path="url(#p7cb661072b)" style="fill: none; stroke: #e4e3dd; stroke-width: 0.8; stroke-linecap: square"/>
     </g>
     <g id="line2d_10"/>
     <g id="text_8">
      <!-- 200 -->
      <g style="fill: #52514e" transform="translate(25.223594 182.690209) scale(0.09 -0.09)">
       <use xlink:href="#DejaVuSans-15"/>
       <use xlink:href="#DejaVuSans-13" transform="translate(63.625 0)"/>
       <use xlink:href="#DejaVuSans-13" transform="translate(127.25 0)"/>
      </g>
     </g>
    </g>
    <g id="ytick_4">
     <g id="line2d_11">
      <path d="M 45.902344 129.156896 
L 529.2 129.156896 
" clip-path="url(#p7cb661072b)" style="fill: none; stroke: #e4e3dd; stroke-width: 0.8; stroke-linecap: square"/>
     </g>
     <g id="line2d_12"/>
     <g id="text_9">
      <!-- 300 -->
      <g style="fill: #52514e" transform="translate(25.223594 132.575841) scale(0.09 -0.09)">
       <use xlink:href="#DejaVuSans-16"/>
       <use xlink:href="#DejaVuSans-13" transform="translate(63.625 0)"/>
       <use xlink:href="#DejaVuSans-13" transform="translate(127.25 0)"/>
      </g>
     </g>
    </g>
    <g id="ytick_5">
     <g id="line2d_13">
      <path d="M 45.902344 79.042528 
L 529.2 79.042528 
" clip-path="url(#p7cb661072b)" style="fill: none; stroke: #e4e3dd; stroke-width: 0.8; stroke-linecap: square"/>
     </g>
     <g id="line2d_14"/>
     <g id="text_10">
      <!-- 400 -->
      <g style="fill: #52514e" transform="translate(25.223594 82.461473) scale(0.09 -0.09)">
       <use xlink:href="#DejaVuSans-17"/>
       <use xlink:href="#DejaVuSans-13" transform="translate(63.625 0)"/>
       <use xlink:href="#DejaVuSans-13" transform="translate(127.25 0)"/>
      </g>
     </g>
    </g>
    <g id="text_11">
     <!-- median latency (ms) -->
     <g style="fill: #52514e" transform="translate(18.82125 212.854844) rotate(-90) scale(0.1 -0.1)">
      <defs>
       <path id="DejaVuSans-50" d="M 3328 2828 
Q 3544 3216 3844 3400 
Q 4144 3584 4550 3584 
Q 5097 3584 5394 3201 
Q 5691 2819 5691 2113 
L 5691 0 
L 5113 0 
L 5113 2094 
Q 5113 2597 4934 2840 
Q 4756 3084 4391 3084 
Q 3944 3084 3684 2787 
Q 3425 2491 3425 1978 
L 3425 0 
L 2847 0 
L 2847 2094 
Q 2847 2600 2669 2842 
Q 2491 3084 2119 3084 
Q 1678 3084 1418 2786 
Q 1159 2488 1159 1978 
L 1159 0 
L 581 0 
L 581 3500 
L 1159 3500 
L 1159 2956 
Q 1356 3278 1631 3431 
Q 1906 3584 2284 3584 
Q 2666 3584 2933 3390 
Q 3200 3197 3328 2828 
z
" transform="scale(0.015625)"/>
       <path id="DejaVuSans-47" d="M 2906 2969 
L 2906 4863 
L 3481 4863 
L 3481 0 
L 2906 0 
L 2906 525 
Q 2725 213 2448 61 
Q 2172 -91 1784 -91 
Q 1150 -91 751 415 
Q 353 922 353 1747 
Q 353 2572 751 3078 
Q 1150 3584 1784 3584 
Q 2172 3584 2448 3432 
Q 2725 3281 2906 2969 
z
M 947 1747 
Q 947 1113 1208 752 
Q 1469 391 1925 391 
Q 2381 391 2643 752 
Q 2906 1113 2906 1747 
Q 2906 2381 2643 2742 
Q 2381 3103 1925 3103 
Q 1469 3103 1208 2742 
Q 947 2381 947 1747 
z
" transform="scale(0.015625)"/>
       <path id="DejaVuSans-4c" d="M 603 3500 
L 1178 3500 
L 1178 0 
L 603 0 
L 603 3500 
z
M 603 4863 
L 1178 4863 
L 1178 4134 
L 603 4134 
L 603 4863 
z
" transform="scale(0.015625)"/>
       <path id="DejaVuSans-44" d="M 2194 1759 
Q 1497 1759 1228 1600 
Q 959 1441 959 1056 
Q 959 750 1161 570 
Q 1363 391 1709 391 
Q 2188 391 2477 730 
Q 2766 1069 2766 1631 
L 2766 1759 
L 2194 1759 
z
M 3341 1997 
L 3341 0 
L 2766 0 
L 2766 531 
Q 2569 213 2275 61 
Q 1981 -91 1556 -91 
Q 1019 -91 701 211 
Q 384 513 384 1019 
Q 384 1609 779 1909 
Q 1175 2209 1959 2209 
L 2766 2209 
L 2766 2266 
Q 2766 2663 2505 2880 
Q 2244 3097 1772 3097 
Q 1472 3097 1187 3025 
Q 903 2953 641 2809 
L 641 3341 
Q 956 3463 1253 3523 
Q 1550 3584 1831 3584 
Q 2591 3584 2966 3190 
Q 3341 2797 3341 1997 
z
" transform="scale(0.015625)"/>
       <path id="DejaVuSans-4f" d="M 603 4863 
L 1178 4863 
L 1178 0 
L 603 0 
L 603 4863 
z
" transform="scale(0.015625)"/>
       <path id="DejaVuSans-5c" d="M 2059 -325 
Q 1816 -950 1584 -1140 
Q 1353 -1331 966 -1331 
L 506 -1331 
L 506 -850 
L 844 -850 
Q 1081 -850 1212 -737 
Q 1344 -625 1503 -206 
L 1606 56 
L 191 3500 
L 800 3500 
L 1894 763 
L 2988 3500 
L 3597 3500 
L 2059 -325 
z
" transform="scale(0.015625)"/>
       <path id="DejaVuSans-b" d="M 1984 4856 
Q 1566 4138 1362 3434 
Q 1159 2731 1159 2009 
Q 1159 1288 1364 580 
Q 1569 -128 1984 -844 
L 1484 -844 
Q 1016 -109 783 600 
Q 550 1309 550 2009 
Q 550 2706 781 3412 
Q 1013 4119 1484 4856 
L 1984 4856 
z
" transform="scale(0.015625)"/>
       <path id="DejaVuSans-c" d="M 513 4856 
L 1013 4856 
Q 1481 4119 1714 3412 
Q 1947 2706 1947 2009 
Q 1947 1309 1714 600 
Q 1481 -109 1013 -844 
L 513 -844 
Q 928 -128 1133 580 
Q 1338 1288 1338 2009 
Q 1338 2731 1133 3434 
Q 928 4138 513 4856 
z
" transform="scale(0.015625)"/>
      </defs>
      <use xlink:href="#DejaVuSans-50"/>
      <use xlink:href="#DejaVuSans-48" transform="translate(97.40625 0)"/>
      <use xlink:href="#DejaVuSans-47" transform="translate(158.9375 0)"/>
      <use xlink:href="#DejaVuSans-4c" transform="translate(222.421875 0)"/>
      <use xlink:href="#DejaVuSans-44" transform="translate(250.203125 0)"/>
      <use xlink:href="#DejaVuSans-51" transform="translate(311.484375 0)"/>
      <use xlink:href="#DejaVuSans-3" transform="translate(374.859375 0)"/>
      <use xlink:href="#DejaVuSans-4f" transform="translate(406.640625 0)"/>
      <use xlink:href="#DejaVuSans-44" transform="translate(434.421875 0)"/>
      <use xlink:href="#DejaVuSans-57" transform="translate(495.703125 0)"/>
      <use xlink:href="#DejaVuSans-48" transform="translate(534.90625 0)"/>
      <use xlink:href="#DejaVuSans-51" transform="translate(596.4375 0)"/>
      <use xlink:href="#DejaVuSans-46" transform="translate(659.8125 0)"/>
      <use xlink:href="#DejaVuSans-5c" transform="translate(714.796875 0)"/>
      <use xlink:href="#DejaVuSans-3" transform="translate(773.984375 0)"/>
      <use xlink:href="#DejaVuSans-b" transform="translate(805.765625 0)"/>
      <use xlink:href="#DejaVuSans-50" transform="translate(844.78125 0)"/>
      <use xlink:href="#DejaVuSans-56" transform="translate(942.1875 0)"/>
      <use xlink:href="#DejaVuSans-c" transform="translate(994.28125 0)"/>
     </g>
    </g>
   </g>
   <g id="line2d_15">
    <path d="M 67.870419 263.463402 
L 287.551172 242.916511 
L 434.005007 173.407883 
L 507.231925 62.504787 
" clip-path="url(#p7cb661072b)" style="fill: none; stroke: #2a78d6; stroke-width: 2; stroke-linecap: square"/>
    <defs>
     <path id="m930839e6f5" d="M 0 3 
C 0.795609 3 1.55874 2.683901 2.12132 2.12132 
C 2.683901 1.55874 3 0.795609 3 0 
C 3 -0.795609 2.683901 -1.55874 2.12132 -2.12132 
C 1.55874 -2.683901 0.795609 -3 0 -3 
C -0.795609 -3 -1.55874 -2.683901 -2.12132 -2.12132 
C -2.683901 -1.55874 -3 -0.795609 -3 0 
C -3 0.795609 -2.683901 1.55874 -2.12132 2.12132 
C -1.55874 2.683901 -0.795609 3 0 3 
z
" style="stroke: #fcfcfb; stroke-width: 1.5"/>
    </defs>
    <g clip-path="url(#p7cb661072b)">
     <use xlink:href="#m930839e6f5" x="67.870419" y="263.463402" style="fill: #2a78d6; stroke: #fcfcfb; stroke-width: 1.5"/>
     <use xlink:href="#m930839e6f5" x="287.551172" y="242.916511" style="fill: #2a78d6; stroke: #fcfcfb; stroke-width: 1.5"/>
     <use xlink:href="#m930839e6f5" x="434.005007" y="173.407883" style="fill: #2a78d6; stroke: #fcfcfb; stroke-width: 1.5"/>
     <use xlink:href="#m930839e6f5" x="507.231925" y="62.504787" style="fill: #2a78d6; stroke: #fcfcfb; stroke-width: 1.5"/>
    </g>
   </g>
   <g id="line2d_16">
    <path d="M 67.870419 261.108027 
L 287.551172 242.21491 
L 434.005007 178.669892 
L 507.231925 74.632464 
" clip-path="url(#p7cb661072b)" style="fill: none; stroke: #eb6834; stroke-width: 2; stroke-linecap: square"/>
    <defs>
     <path id="m38d7cd4c43" d="M 0 3 
C 0.795609 3 1.55874 2.683901 2.12132 2.12132 
C 2.683901 1.55874 3 0.795609 3 0 
C 3 -0.795609 2.683901 -1.55874 2.12132 -2.12132 
C 1.55874 -2.683901 0.795609 -3 0 -3 
C -0.795609 -3 -1.55874 -2.683901 -2.12132 -2.12132 
C -2.683901 -1.55874 -3 -0.795609 -3 0 
C -3 0.795609 -2.683901 1.55874 -2.12132 2.12132 
C -1.55874 2.683901 -0.795609 3 0 3 
z
" style="stroke: #fcfcfb; stroke-width: 1.5"/>
    </defs>
    <g clip-path="url(#p7cb661072b)">
     <use xlink:href="#m38d7cd4c43" x="67.870419" y="261.108027" style="fill: #eb6834; stroke: #fcfcfb; stroke-width: 1.5"/>
     <use xlink:href="#m38d7cd4c43" x="287.551172" y="242.21491" style="fill: #eb6834; stroke: #fcfcfb; stroke-width: 1.5"/>
     <use xlink:href="#m38d7cd4c43" x="434.005007" y="178.669892" style="fill: #eb6834; stroke: #fcfcfb; stroke-width: 1.5"/>
     <use xlink:href="#m38d7cd4c43" x="507.231925" y="74.632464" style="fill: #eb6834; stroke: #fcfcfb; stroke-width: 1.5"/>
    </g>
   </g>
   <g id="line2d_17">
    <path d="M 67.870419 261.358599 
L 287.551172 242.816283 
L 434.005007 169.198276 
L 507.231925 53.383972 
" clip-path="url(#p7cb661072b)" style="fill: none; stroke: #1baf7a; stroke-width: 2; stroke-linecap: square"/>
    <defs>
     <path id="m484a3abcc5" d="M 0 3 
C 0.795609 3 1.55874 2.683901 2.12132 2.12132 
C 2.683901 1.55874 3 0.795609 3 0 
C 3 -0.795609 2.683901 -1.55874 2.12132 -2.12132 
C 1.55874 -2.683901 0.795609 -3 0 -3 
C -0.795609 -3 -1.55874 -2.683901 -2.12132 -2.12132 
C -2.683901 -1.55874 -3 -0.795609 -3 0 
C -3 0.795609 -2.683901 1.55874 -2.12132 2.12132 
C -1.55874 2.683901 -0.795609 3 0 3 
z
" style="stroke: #fcfcfb; stroke-width: 1.5"/>
    </defs>
    <g clip-path="url(#p7cb661072b)">
     <use xlink:href="#m484a3abcc5" x="67.870419" y="261.358599" style="fill: #1baf7a; stroke: #fcfcfb; stroke-width: 1.5"/>
     <use xlink:href="#m484a3abcc5" x="287.551172" y="242.816283" style="fill: #1baf7a; stroke: #fcfcfb; stroke-width: 1.5"/>
     <use xlink:href="#m484a3abcc5" x="434.005007" y="169.198276" style="fill: #1baf7a; stroke: #fcfcfb; stroke-width: 1.5"/>
     <use xlink:href="#m484a3abcc5" x="507.231925" y="53.383972" style="fill: #1baf7a; stroke: #fcfcfb; stroke-width: 1.5"/>
    </g>
   </g>
   <g id="patch_3">
    <path d="M 45.902344 279.5 
L 45.902344 42.88 
" style="fill: none; stroke: #e4e3dd; stroke-width: 0.8; stroke-linejoin: miter; stroke-linecap: square"/>
   </g>
   <g id="patch_4">
    <path d="M 45.902344 279.5 
L 529.2 279.5 
" style="fill: none; stroke: #e4e3dd; stroke-width: 0.8; stroke-linejoin: miter; stroke-linecap: square"/>
   </g>
   <g id="text_12">
    <!-- vLLM 0.29, in-process, whole batch timed per request (worst case), eager mode -->
    <g style="fill: #52514e" transform="translate(45.902344 35.985491) scale(0.09 -0.09)">
     <defs>
      <path id="DejaVuSans-59" d="M 191 3500 
L 800 3500 
L 1894 563 
L 2988 3500 
L 3597 3500 
L 2284 0 
L 1503 0 
L 191 3500 
z
" transform="scale(0.015625)"/>
      <path id="DejaVuSans-2f" d="M 628 4666 
L 1259 4666 
L 1259 531 
L 3531 531 
L 3531 0 
L 628 0 
L 628 4666 
z
" transform="scale(0.015625)"/>
      <path id="DejaVuSans-30" d="M 628 4666 
L 1569 4666 
L 2759 1491 
L 3956 4666 
L 4897 4666 
L 4897 0 
L 4281 0 
L 4281 4097 
L 3078 897 
L 2444 897 
L 1241 4097 
L 1241 0 
L 628 0 
L 628 4666 
z
" transform="scale(0.015625)"/>
      <path id="DejaVuSans-11" d="M 684 794 
L 1344 794 
L 1344 0 
L 684 0 
L 684 794 
z
" transform="scale(0.015625)"/>
      <path id="DejaVuSans-1c" d="M 703 97 
L 703 672 
Q 941 559 1184 500 
Q 1428 441 1663 441 
Q 2288 441 2617 861 
Q 2947 1281 2994 2138 
Q 2813 1869 2534 1725 
Q 2256 1581 1919 1581 
Q 1219 1581 811 2004 
Q 403 2428 403 3163 
Q 403 3881 828 4315 
Q 1253 4750 1959 4750 
Q 2769 4750 3195 4129 
Q 3622 3509 3622 2328 
Q 3622 1225 3098 567 
Q 2575 -91 1691 -91 
Q 1453 -91 1209 -44 
Q 966 3 703 97 
z
M 1959 2075 
Q 2384 2075 2632 2365 
Q 2881 2656 2881 3163 
Q 2881 3666 2632 3958 
Q 2384 4250 1959 4250 
Q 1534 4250 1286 3958 
Q 1038 3666 1038 3163 
Q 1038 2656 1286 2365 
Q 1534 2075 1959 2075 
z
" transform="scale(0.015625)"/>
      <path id="DejaVuSans-f" d="M 750 794 
L 1409 794 
L 1409 256 
L 897 -744 
L 494 -744 
L 750 256 
L 750 794 
z
" transform="scale(0.015625)"/>
      <path id="DejaVuSans-10" d="M 313 2009 
L 1997 2009 
L 1997 1497 
L 313 1497 
L 313 2009 
z
" transform="scale(0.015625)"/>
      <path id="DejaVuSans-53" d="M 1159 525 
L 1159 -1331 
L 581 -1331 
L 581 3500 
L 1159 3500 
L 1159 2969 
Q 1341 3281 1617 3432 
Q 1894 3584 2278 3584 
Q 2916 3584 3314 3078 
Q 3713 2572 3713 1747 
Q 3713 922 3314 415 
Q 2916 -91 2278 -91 
Q 1894 -91 1617 61 
Q 1341 213 1159 525 
z
M 3116 1747 
Q 3116 2381 2855 2742 
Q 2594 3103 2138 3103 
Q 1681 3103 1420 2742 
Q 1159 2381 1159 1747 
Q 1159 1113 1420 752 
Q 1681 391 2138 391 
Q 2594 391 2855 752 
Q 3116 1113 3116 1747 
z
" transform="scale(0.015625)"/>
      <path id="DejaVuSans-5a" d="M 269 3500 
L 844 3500 
L 1563 769 
L 2278 3500 
L 2956 3500 
L 3675 769 
L 4391 3500 
L 4966 3500 
L 4050 0 
L 3372 0 
L 2619 2869 
L 1863 0 
L 1184 0 
L 269 3500 
z
" transform="scale(0.015625)"/>
      <path id="DejaVuSans-4b" d="M 3513 2113 
L 3513 0 
L 2938 0 
L 2938 2094 
Q 2938 2591 2744 2837 
Q 2550 3084 2163 3084 
Q 1697 3084 1428 2787 
Q 1159 2491 1159 1978 
L 1159 0 
L 581 0 
L 581 4863 
L 1159 4863 
L 1159 2956 
Q 1366 3272 1645 3428 
Q 1925 3584 2291 3584 
Q 2894 3584 3203 3211 
Q 3513 2838 3513 2113 
z
" transform="scale(0.015625)"/>
      <path id="DejaVuSans-45" d="M 3116 1747 
Q 3116 2381 2855 2742 
Q 2594 3103 2138 3103 
Q 1681 3103 1420 2742 
Q 1159 2381 1159 1747 
Q 1159 1113 1420 752 
Q 1681 391 2138 391 
Q 2594 391 2855 752 
Q 3116 1113 3116 1747 
z
M 1159 2969 
Q 1341 3281 1617 3432 
Q 1894 3584 2278 3584 
Q 2916 3584 3314 3078 
Q 3713 2572 3713 1747 
Q 3713 922 3314 415 
Q 2916 -91 2278 -91 
Q 1894 -91 1617 61 
Q 1341 213 1159 525 
L 1159 0 
L 581 0 
L 581 4863 
L 1159 4863 
L 1159 2969 
z
" transform="scale(0.015625)"/>
      <path id="DejaVuSans-4a" d="M 2906 1791 
Q 2906 2416 2648 2759 
Q 2391 3103 1925 3103 
Q 1463 3103 1205 2759 
Q 947 2416 947 1791 
Q 947 1169 1205 825 
Q 1463 481 1925 481 
Q 2391 481 2648 825 
Q 2906 1169 2906 1791 
z
M 3481 434 
Q 3481 -459 3084 -895 
Q 2688 -1331 1869 -1331 
Q 1566 -1331 1297 -1286 
Q 1028 -1241 775 -1147 
L 775 -588 
Q 1028 -725 1275 -790 
Q 1522 -856 1778 -856 
Q 2344 -856 2625 -561 
Q 2906 -266 2906 331 
L 2906 616 
Q 2728 306 2450 153 
Q 2172 0 1784 0 
Q 1141 0 747 490 
Q 353 981 353 1791 
Q 353 2603 747 3093 
Q 1141 3584 1784 3584 
Q 2172 3584 2450 3431 
Q 2728 3278 2906 2969 
L 2906 3500 
L 3481 3500 
L 3481 434 
z
" transform="scale(0.015625)"/>
     </defs>
     <use xlink:href="#DejaVuSans-59"/>
     <use xlink:href="#DejaVuSans-2f" transform="translate(59.1875 0)"/>
     <use xlink:href="#DejaVuSans-2f" transform="translate(114.90625 0)"/>
     <use xlink:href="#DejaVuSans-30" transform="translate(170.625 0)"/>
     <use xlink:href="#DejaVuSans-3" transform="translate(256.90625 0)"/>
     <use xlink:href="#DejaVuSans-13" transform="translate(288.6875 0)"/>
     <use xlink:href="#DejaVuSans-11" transform="translate(352.3125 0)"/>
     <use xlink:href="#DejaVuSans-15" transform="translate(384.09375 0)"/>
     <use xlink:href="#DejaVuSans-1c" transform="translate(447.71875 0)"/>
     <use xlink:href="#DejaVuSans-f" transform="translate(511.34375 0)"/>
     <use xlink:href="#DejaVuSans-3" transform="translate(543.125 0)"/>
     <use xlink:href="#DejaVuSans-4c" transform="translate(574.90625 0)"/>
     <use xlink:href="#DejaVuSans-51" transform="translate(602.6875 0)"/>
     <use xlink:href="#DejaVuSans-10" transform="translate(666.0625 0)"/>
     <use xlink:href="#DejaVuSans-53" transform="translate(702.140625 0)"/>
     <use xlink:href="#DejaVuSans-55" transform="translate(765.625 0)"/>
     <use xlink:href="#DejaVuSans-52" transform="translate(804.53125 0)"/>
     <use xlink:href="#DejaVuSans-46" transform="translate(865.71875 0)"/>
     <use xlink:href="#DejaVuSans-48" transform="translate(920.703125 0)"/>
     <use xlink:href="#DejaVuSans-56" transform="translate(982.234375 0)"/>
     <use xlink:href="#DejaVuSans-56" transform="translate(1034.328125 0)"/>
     <use xlink:href="#DejaVuSans-f" transform="translate(1086.421875 0)"/>
     <use xlink:href="#DejaVuSans-3" transform="translate(1118.203125 0)"/>
     <use xlink:href="#DejaVuSans-5a" transform="translate(1149.984375 0)"/>
     <use xlink:href="#DejaVuSans-4b" transform="translate(1231.765625 0)"/>
     <use xlink:href="#DejaVuSans-52" transform="translate(1295.140625 0)"/>
     <use xlink:href="#DejaVuSans-4f" transform="translate(1356.328125 0)"/>
     <use xlink:href="#DejaVuSans-48" transform="translate(1384.109375 0)"/>
     <use xlink:href="#DejaVuSans-3" transform="translate(1445.640625 0)"/>
     <use xlink:href="#DejaVuSans-45" transform="translate(1477.421875 0)"/>
     <use xlink:href="#DejaVuSans-44" transform="translate(1540.90625 0)"/>
     <use xlink:href="#DejaVuSans-57" transform="translate(1602.1875 0)"/>
     <use xlink:href="#DejaVuSans-46" transform="translate(1641.390625 0)"/>
     <use xlink:href="#DejaVuSans-4b" transform="translate(1696.375 0)"/>
     <use xlink:href="#DejaVuSans-3" transform="translate(1759.75 0)"/>
     <use xlink:href="#DejaVuSans-57" transform="translate(1791.53125 0)"/>
     <use xlink:href="#DejaVuSans-4c" transform="translate(1830.734375 0)"/>
     <use xlink:href="#DejaVuSans-50" transform="translate(1858.515625 0)"/>
     <use xlink:href="#DejaVuSans-48" transform="translate(1955.921875 0)"/>
     <use xlink:href="#DejaVuSans-47" transform="translate(2017.453125 0)"/>
     <use xlink:href="#DejaVuSans-3" transform="translate(2080.9375 0)"/>
     <use xlink:href="#DejaVuSans-53" transform="translate(2112.71875 0)"/>
     <use xlink:href="#DejaVuSans-48" transform="translate(2176.203125 0)"/>
     <use xlink:href="#DejaVuSans-55" transform="translate(2237.734375 0)"/>
     <use xlink:href="#DejaVuSans-3" transform="translate(2278.84375 0)"/>
     <use xlink:href="#DejaVuSans-55" transform="translate(2310.625 0)"/>
     <use xlink:href="#DejaVuSans-48" transform="translate(2349.53125 0)"/>
     <use xlink:href="#DejaVuSans-54" transform="translate(2411.0625 0)"/>
     <use xlink:href="#DejaVuSans-58" transform="translate(2474.546875 0)"/>
     <use xlink:href="#DejaVuSans-48" transform="translate(2537.921875 0)"/>
     <use xlink:href="#DejaVuSans-56" transform="translate(2599.453125 0)"/>
     <use xlink:href="#DejaVuSans-57" transform="translate(2651.546875 0)"/>
     <use xlink:href="#DejaVuSans-3" transform="translate(2690.75 0)"/>
     <use xlink:href="#DejaVuSans-b" transform="translate(2722.53125 0)"/>
     <use xlink:href="#DejaVuSans-5a" transform="translate(2761.546875 0)"/>
     <use xlink:href="#DejaVuSans-52" transform="translate(2843.328125 0)"/>
     <use xlink:href="#DejaVuSans-55" transform="translate(2904.515625 0)"/>
     <use xlink:href="#DejaVuSans-56" transform="translate(2945.625 0)"/>
     <use xlink:href="#DejaVuSans-57" transform="translate(2997.71875 0)"/>
     <use xlink:href="#DejaVuSans-3" transform="translate(3036.921875 0)"/>
     <use xlink:href="#DejaVuSans-46" transform="translate(3068.703125 0)"/>
     <use xlink:href="#DejaVuSans-44" transform="translate(3123.6875 0)"/>
     <use xlink:href="#DejaVuSans-56" transform="translate(3184.96875 0)"/>
     <use xlink:href="#DejaVuSans-48" transform="translate(3237.0625 0)"/>
     <use xlink:href="#DejaVuSans-c" transform="translate(3298.59375 0)"/>
     <use xlink:href="#DejaVuSans-f" transform="translate(3337.609375 0)"/>
     <use xlink:href="#DejaVuSans-3" transform="translate(3369.390625 0)"/>
     <use xlink:href="#DejaVuSans-48" transform="translate(3401.171875 0)"/>
     <use xlink:href="#DejaVuSans-44" transform="translate(3462.703125 0)"/>
     <use xlink:href="#DejaVuSans-4a" transform="translate(3523.984375 0)"/>
     <use xlink:href="#DejaVuSans-48" transform="translate(3587.46875 0)"/>
     <use xlink:href="#DejaVuSans-55" transform="translate(3649 0)"/>
     <use xlink:href="#DejaVuSans-3" transform="translate(3690.109375 0)"/>
     <use xlink:href="#DejaVuSans-50" transform="translate(3721.890625 0)"/>
     <use xlink:href="#DejaVuSans-52" transform="translate(3819.296875 0)"/>
     <use xlink:href="#DejaVuSans-47" transform="translate(3880.484375 0)"/>
     <use xlink:href="#DejaVuSans-48" transform="translate(3943.96875 0)"/>
    </g>
   </g>
   <g id="text_13">
    <!-- Latency vs load, Qwen3.5-0.8B on one RTX 4060 Ti -->
    <g style="fill: #0b0b0b" transform="translate(45.902344 20.88) scale(0.13 -0.13)">
     <defs>
      <path id="DejaVuSans-Bold-2f" d="M 588 4666 
L 1791 4666 
L 1791 909 
L 3903 909 
L 3903 0 
L 588 0 
L 588 4666 
z
" transform="scale(0.015625)"/>
      <path id="DejaVuSans-Bold-44" d="M 2106 1575 
Q 1756 1575 1579 1456 
Q 1403 1338 1403 1106 
Q 1403 894 1545 773 
Q 1688 653 1941 653 
Q 2256 653 2472 879 
Q 2688 1106 2688 1447 
L 2688 1575 
L 2106 1575 
z
M 3816 1997 
L 3816 0 
L 2688 0 
L 2688 519 
Q 2463 200 2181 54 
Q 1900 -91 1497 -91 
Q 953 -91 614 226 
Q 275 544 275 1050 
Q 275 1666 698 1953 
Q 1122 2241 2028 2241 
L 2688 2241 
L 2688 2328 
Q 2688 2594 2478 2717 
Q 2269 2841 1825 2841 
Q 1466 2841 1156 2769 
Q 847 2697 581 2553 
L 581 3406 
Q 941 3494 1303 3539 
Q 1666 3584 2028 3584 
Q 2975 3584 3395 3211 
Q 3816 2838 3816 1997 
z
" transform="scale(0.015625)"/>
      <path id="DejaVuSans-Bold-57" d="M 1759 4494 
L 1759 3500 
L 2913 3500 
L 2913 2700 
L 1759 2700 
L 1759 1216 
Q 1759 972 1856 886 
Q 1953 800 2241 800 
L 2816 800 
L 2816 0 
L 1856 0 
Q 1194 0 917 276 
Q 641 553 641 1216 
L 641 2700 
L 84 2700 
L 84 3500 
L 641 3500 
L 641 4494 
L 1759 4494 
z
" transform="scale(0.015625)"/>
      <path id="DejaVuSans-Bold-48" d="M 4031 1759 
L 4031 1441 
L 1416 1441 
Q 1456 1047 1700 850 
Q 1944 653 2381 653 
Q 2734 653 3104 758 
Q 3475 863 3866 1075 
L 3866 213 
Q 3469 63 3072 -14 
Q 2675 -91 2278 -91 
Q 1328 -91 801 392 
Q 275 875 275 1747 
Q 275 2603 792 3093 
Q 1309 3584 2216 3584 
Q 3041 3584 3536 3087 
Q 4031 2591 4031 1759 
z
M 2881 2131 
Q 2881 2450 2695 2645 
Q 2509 2841 2209 2841 
Q 1884 2841 1681 2658 
Q 1478 2475 1428 2131 
L 2881 2131 
z
" transform="scale(0.015625)"/>
      <path id="DejaVuSans-Bold-51" d="M 4056 2131 
L 4056 0 
L 2931 0 
L 2931 347 
L 2931 1631 
Q 2931 2084 2911 2256 
Q 2891 2428 2841 2509 
Q 2775 2619 2662 2680 
Q 2550 2741 2406 2741 
Q 2056 2741 1856 2470 
Q 1656 2200 1656 1722 
L 1656 0 
L 538 0 
L 538 3500 
L 1656 3500 
L 1656 2988 
Q 1909 3294 2193 3439 
Q 2478 3584 2822 3584 
Q 3428 3584 3742 3212 
Q 4056 2841 4056 2131 
z
" transform="scale(0.015625)"/>
      <path id="DejaVuSans-Bold-46" d="M 3366 3391 
L 3366 2478 
Q 3138 2634 2908 2709 
Q 2678 2784 2431 2784 
Q 1963 2784 1702 2511 
Q 1441 2238 1441 1747 
Q 1441 1256 1702 982 
Q 1963 709 2431 709 
Q 2694 709 2930 787 
Q 3166 866 3366 1019 
L 3366 103 
Q 3103 6 2833 -42 
Q 2563 -91 2291 -91 
Q 1344 -91 809 395 
Q 275 881 275 1747 
Q 275 2613 809 3098 
Q 1344 3584 2291 3584 
Q 2566 3584 2833 3536 
Q 3100 3488 3366 3391 
z
" transform="scale(0.015625)"/>
      <path id="DejaVuSans-Bold-5c" d="M 78 3500 
L 1197 3500 
L 2138 1125 
L 2938 3500 
L 4056 3500 
L 2584 -331 
Q 2363 -916 2067 -1148 
Q 1772 -1381 1288 -1381 
L 641 -1381 
L 641 -647 
L 991 -647 
Q 1275 -647 1404 -556 
Q 1534 -466 1606 -231 
L 1638 -134 
L 78 3500 
z
" transform="scale(0.015625)"/>
      <path id="DejaVuSans-Bold-3" transform="scale(0.015625)"/>
      <path id="DejaVuSans-Bold-59" d="M 97 3500 
L 1216 3500 
L 2088 1081 
L 2956 3500 
L 4078 3500 
L 2700 0 
L 1472 0 
L 97 3500 
z
" transform="scale(0.015625)"/>
      <path id="DejaVuSans-Bold-56" d="M 3272 3391 
L 3272 2541 
Q 2913 2691 2578 2766 
Q 2244 2841 1947 2841 
Q 1628 2841 1473 2761 
Q 1319 2681 1319 2516 
Q 1319 2381 1436 2309 
Q 1553 2238 1856 2203 
L 2053 2175 
Q 2913 2066 3209 1816 
Q 3506 1566 3506 1031 
Q 3506 472 3093 190 
Q 2681 -91 1863 -91 
Q 1516 -91 1145 -36 
Q 775 19 384 128 
L 384 978 
Q 719 816 1070 734 
Q 1422 653 1784 653 
Q 2113 653 2278 743 
Q 2444 834 2444 1013 
Q 2444 1163 2330 1236 
Q 2216 1309 1875 1350 
L 1678 1375 
Q 931 1469 631 1722 
Q 331 1975 331 2491 
Q 331 3047 712 3315 
Q 1094 3584 1881 3584 
Q 2191 3584 2531 3537 
Q 2872 3491 3272 3391 
z
" transform="scale(0.015625)"/>
      <path id="DejaVuSans-Bold-4f" d="M 538 4863 
L 1656 4863 
L 1656 0 
L 538 0 
L 538 4863 
z
" transform="scale(0.015625)"/>
      <path id="DejaVuSans-Bold-52" d="M 2203 2784 
Q 1831 2784 1636 2517 
Q 1441 2250 1441 1747 
Q 1441 1244 1636 976 
Q 1831 709 2203 709 
Q 2569 709 2762 976 
Q 2956 1244 2956 1747 
Q 2956 2250 2762 2517 
Q 2569 2784 2203 2784 
z
M 2203 3584 
Q 3106 3584 3614 3096 
Q 4122 2609 4122 1747 
Q 4122 884 3614 396 
Q 3106 -91 2203 -91 
Q 1297 -91 786 396 
Q 275 884 275 1747 
Q 275 2609 786 3096 
Q 1297 3584 2203 3584 
z
" transform="scale(0.015625)"/>
      <path id="DejaVuSans-Bold-47" d="M 2919 2988 
L 2919 4863 
L 4044 4863 
L 4044 0 
L 2919 0 
L 2919 506 
Q 2688 197 2409 53 
Q 2131 -91 1766 -91 
Q 1119 -91 703 423 
Q 288 938 288 1747 
Q 288 2556 703 3070 
Q 1119 3584 1766 3584 
Q 2128 3584 2408 3439 
Q 2688 3294 2919 2988 
z
M 2181 722 
Q 2541 722 2730 984 
Q 2919 1247 2919 1747 
Q 2919 2247 2730 2509 
Q 2541 2772 2181 2772 
Q 1825 2772 1636 2509 
Q 1447 2247 1447 1747 
Q 1447 1247 1636 984 
Q 1825 722 2181 722 
z
" transform="scale(0.015625)"/>
      <path id="DejaVuSans-Bold-f" d="M 653 1209 
L 1778 1209 
L 1778 256 
L 1006 -909 
L 341 -909 
L 653 256 
L 653 1209 
z
" transform="scale(0.015625)"/>
      <path id="DejaVuSans-Bold-34" d="M 2847 -84 
L 2753 -84 
Q 1600 -84 959 553 
Q 319 1191 319 2328 
Q 319 3463 958 4106 
Q 1597 4750 2719 4750 
Q 3853 4750 4486 4112 
Q 5119 3475 5119 2328 
Q 5119 1541 4783 972 
Q 4447 403 3816 116 
L 4756 -934 
L 3609 -934 
L 2847 -84 
z
M 2719 3878 
Q 2169 3878 1866 3472 
Q 1563 3066 1563 2328 
Q 1563 1578 1859 1179 
Q 2156 781 2719 781 
Q 3272 781 3575 1187 
Q 3878 1594 3878 2328 
Q 3878 3066 3575 3472 
Q 3272 3878 2719 3878 
z
" transform="scale(0.015625)"/>
      <path id="DejaVuSans-Bold-5a" d="M 225 3500 
L 1313 3500 
L 1900 1088 
L 2491 3500 
L 3425 3500 
L 4013 1113 
L 4603 3500 
L 5691 3500 
L 4769 0 
L 3547 0 
L 2956 2406 
L 2369 0 
L 1147 0 
L 225 3500 
z
" transform="scale(0.015625)"/>
      <path id="DejaVuSans-Bold-16" d="M 2981 2516 
Q 3453 2394 3698 2092 
Q 3944 1791 3944 1325 
Q 3944 631 3412 270 
Q 2881 -91 1863 -91 
Q 1503 -91 1142 -33 
Q 781 25 428 141 
L 428 1069 
Q 766 900 1098 814 
Q 1431 728 1753 728 
Q 2231 728 2486 893 
Q 2741 1059 2741 1369 
Q 2741 1688 2480 1852 
Q 2219 2016 1709 2016 
L 1228 2016 
L 1228 2791 
L 1734 2791 
Q 2188 2791 2409 2933 
Q 2631 3075 2631 3366 
Q 2631 3634 2415 3781 
Q 2200 3928 1806 3928 
Q 1516 3928 1219 3862 
Q 922 3797 628 3669 
L 628 4550 
Q 984 4650 1334 4700 
Q 1684 4750 2022 4750 
Q 2931 4750 3382 4451 
Q 3834 4153 3834 3553 
Q 3834 3144 3618 2883 
Q 3403 2622 2981 2516 
z
" transform="scale(0.015625)"/>
      <path id="DejaVuSans-Bold-11" d="M 653 1209 
L 1778 1209 
L 1778 0 
L 653 0 
L 653 1209 
z
" transform="scale(0.015625)"/>
      <path id="DejaVuSans-Bold-18" d="M 678 4666 
L 3669 4666 
L 3669 3781 
L 1638 3781 
L 1638 3059 
Q 1775 3097 1914 3117 
Q 2053 3138 2203 3138 
Q 3056 3138 3531 2711 
Q 4006 2284 4006 1522 
Q 4006 766 3489 337 
Q 2972 -91 2053 -91 
Q 1656 -91 1267 -14 
Q 878 63 494 219 
L 494 1166 
Q 875 947 1217 837 
Q 1559 728 1863 728 
Q 2300 728 2551 942 
Q 2803 1156 2803 1522 
Q 2803 1891 2551 2103 
Q 2300 2316 1863 2316 
Q 1603 2316 1309 2248 
Q 1016 2181 678 2041 
L 678 4666 
z
" transform="scale(0.015625)"/>
      <path id="DejaVuSans-Bold-10" d="M 347 2297 
L 2309 2297 
L 2309 1388 
L 347 1388 
L 347 2297 
z
" transform="scale(0.015625)"/>
      <path id="DejaVuSans-Bold-13" d="M 2944 2338 
Q 2944 3213 2780 3570 
Q 2616 3928 2228 3928 
Q 1841 3928 1675 3570 
Q 1509 3213 1509 2338 
Q 1509 1453 1675 1090 
Q 1841 728 2228 728 
Q 2613 728 2778 1090 
Q 2944 1453 2944 2338 
z
M 4147 2328 
Q 4147 1169 3647 539 
Q 3147 -91 2228 -91 
Q 1306 -91 806 539 
Q 306 1169 306 2328 
Q 306 3491 806 4120 
Q 1306 4750 2228 4750 
Q 3147 4750 3647 4120 
Q 4147 3491 4147 2328 
z
" transform="scale(0.015625)"/>
      <path id="DejaVuSans-Bold-1b" d="M 2228 2088 
Q 1891 2088 1709 1903 
Q 1528 1719 1528 1375 
Q 1528 1031 1709 848 
Q 1891 666 2228 666 
Q 2563 666 2741 848 
Q 2919 1031 2919 1375 
Q 2919 1722 2741 1905 
Q 2563 2088 2228 2088 
z
M 1350 2484 
Q 925 2613 709 2878 
Q 494 3144 494 3541 
Q 494 4131 934 4440 
Q 1375 4750 2228 4750 
Q 3075 4750 3515 4442 
Q 3956 4134 3956 3541 
Q 3956 3144 3739 2878 
Q 3522 2613 3097 2484 
Q 3572 2353 3814 2058 
Q 4056 1763 4056 1313 
Q 4056 619 3595 264 
Q 3134 -91 2228 -91 
Q 1319 -91 855 264 
Q 391 619 391 1313 
Q 391 1763 633 2058 
Q 875 2353 1350 2484 
z
M 1631 3419 
Q 1631 3141 1786 2991 
Q 1941 2841 2228 2841 
Q 2509 2841 2662 2991 
Q 2816 3141 2816 3419 
Q 2816 3697 2662 3845 
Q 2509 3994 2228 3994 
Q 1941 3994 1786 3844 
Q 1631 3694 1631 3419 
z
" transform="scale(0.015625)"/>
      <path id="DejaVuSans-Bold-25" d="M 2456 2859 
Q 2741 2859 2887 2984 
Q 3034 3109 3034 3353 
Q 3034 3594 2887 3720 
Q 2741 3847 2456 3847 
L 1791 3847 
L 1791 2859 
L 2456 2859 
z
M 2497 819 
Q 2859 819 3042 972 
Q 3225 1125 3225 1434 
Q 3225 1738 3044 1889 
Q 2863 2041 2497 2041 
L 1791 2041 
L 1791 819 
L 2497 819 
z
M 3616 2497 
Q 4003 2384 4215 2081 
Q 4428 1778 4428 1338 
Q 4428 663 3972 331 
Q 3516 0 2584 0 
L 588 0 
L 588 4666 
L 2394 4666 
Q 3366 4666 3802 4372 
Q 4238 4078 4238 3431 
Q 4238 3091 4078 2852 
Q 3919 2613 3616 2497 
z
" transform="scale(0.015625)"/>
      <path id="DejaVuSans-Bold-35" d="M 2297 2597 
Q 2675 2597 2839 2737 
Q 3003 2878 3003 3200 
Q 3003 3519 2839 3656 
Q 2675 3794 2297 3794 
L 1791 3794 
L 1791 2597 
L 2297 2597 
z
M 1791 1766 
L 1791 0 
L 588 0 
L 588 4666 
L 2425 4666 
Q 3347 4666 3776 4356 
Q 4206 4047 4206 3378 
Q 4206 2916 3982 2619 
Q 3759 2322 3309 2181 
Q 3556 2125 3751 1926 
Q 3947 1728 4147 1325 
L 4800 0 
L 3519 0 
L 2950 1159 
Q 2778 1509 2601 1637 
Q 2425 1766 2131 1766 
L 1791 1766 
z
" transform="scale(0.015625)"/>
      <path id="DejaVuSans-Bold-37" d="M 31 4666 
L 4331 4666 
L 4331 3756 
L 2784 3756 
L 2784 0 
L 1581 0 
L 1581 3756 
L 31 3756 
L 31 4666 
z
" transform="scale(0.015625)"/>
      <path id="DejaVuSans-Bold-3b" d="M 3188 2381 
L 4806 0 
L 3553 0 
L 2463 1594 
L 1381 0 
L 122 0 
L 1741 2381 
L 184 4666 
L 1441 4666 
L 2463 3163 
L 3481 4666 
L 4744 4666 
L 3188 2381 
z
" transform="scale(0.015625)"/>
      <path id="DejaVuSans-Bold-17" d="M 2356 3675 
L 1038 1722 
L 2356 1722 
L 2356 3675 
z
M 2156 4666 
L 3494 4666 
L 3494 1722 
L 4159 1722 
L 4159 850 
L 3494 850 
L 3494 0 
L 2356 0 
L 2356 850 
L 288 850 
L 288 1881 
L 2156 4666 
z
" transform="scale(0.015625)"/>
      <path id="DejaVuSans-Bold-19" d="M 2316 2303 
Q 2000 2303 1842 2098 
Q 1684 1894 1684 1484 
Q 1684 1075 1842 870 
Q 2000 666 2316 666 
Q 2634 666 2792 870 
Q 2950 1075 2950 1484 
Q 2950 1894 2792 2098 
Q 2634 2303 2316 2303 
z
M 3803 4544 
L 3803 3681 
Q 3506 3822 3243 3889 
Q 2981 3956 2731 3956 
Q 2194 3956 1894 3657 
Q 1594 3359 1544 2772 
Q 1750 2925 1990 3001 
Q 2231 3078 2516 3078 
Q 3231 3078 3670 2659 
Q 4109 2241 4109 1563 
Q 4109 813 3618 361 
Q 3128 -91 2303 -91 
Q 1394 -91 895 523 
Q 397 1138 397 2266 
Q 397 3422 980 4083 
Q 1563 4744 2578 4744 
Q 2900 4744 3203 4694 
Q 3506 4644 3803 4544 
z
" transform="scale(0.015625)"/>
      <path id="DejaVuSans-Bold-4c" d="M 538 3500 
L 1656 3500 
L 1656 0 
L 538 0 
L 538 3500 
z
M 538 4863 
L 1656 4863 
L 1656 3950 
L 538 3950 
L 538 4863 
z
" transform="scale(0.015625)"/>
     </defs>
     <use xlink:href="#DejaVuSans-Bold-2f"/>
     <use xlink:href="#DejaVuSans-Bold-44" transform="translate(63.71875 0)"/>
     <use xlink:href="#DejaVuSans-Bold-57" transform="translate(131.203125 0)"/>
     <use xlink:href="#DejaVuSans-Bold-48" transform="translate(179 0)"/>
     <use xlink:href="#DejaVuSans-Bold-51" transform="translate(246.828125 0)"/>
     <use xlink:href="#DejaVuSans-Bold-46" transform="translate(318.015625 0)"/>
     <use xlink:href="#DejaVuSans-Bold-5c" transform="translate(377.296875 0)"/>
     <use xlink:href="#DejaVuSans-Bold-3" transform="translate(442.484375 0)"/>
     <use xlink:href="#DejaVuSans-Bold-59" transform="translate(477.296875 0)"/>
     <use xlink:href="#DejaVuSans-Bold-56" transform="translate(542.484375 0)"/>
     <use xlink:href="#DejaVuSans-Bold-3" transform="translate(602 0)"/>
     <use xlink:href="#DejaVuSans-Bold-4f" transform="translate(636.8125 0)"/>
     <use xlink:href="#DejaVuSans-Bold-52" transform="translate(671.09375 0)"/>
     <use xlink:href="#DejaVuSans-Bold-44" transform="translate(739.796875 0)"/>
     <use xlink:href="#DejaVuSans-Bold-47" transform="translate(807.28125 0)"/>
     <use xlink:href="#DejaVuSans-Bold-f" transform="translate(878.859375 0)"/>
     <use xlink:href="#DejaVuSans-Bold-3" transform="translate(916.84375 0)"/>
     <use xlink:href="#DejaVuSans-Bold-34" transform="translate(951.65625 0)"/>
     <use xlink:href="#DejaVuSans-Bold-5a" transform="translate(1036.671875 0)"/>
     <use xlink:href="#DejaVuSans-Bold-48" transform="translate(1129.0625 0)"/>
     <use xlink:href="#DejaVuSans-Bold-51" transform="translate(1196.890625 0)"/>
     <use xlink:href="#DejaVuSans-Bold-16" transform="translate(1268.078125 0)"/>
     <use xlink:href="#DejaVuSans-Bold-11" transform="translate(1337.65625 0)"/>
     <use xlink:href="#DejaVuSans-Bold-18" transform="translate(1375.640625 0)"/>
     <use xlink:href="#DejaVuSans-Bold-10" transform="translate(1445.21875 0)"/>
     <use xlink:href="#DejaVuSans-Bold-13" transform="translate(1486.71875 0)"/>
     <use xlink:href="#DejaVuSans-Bold-11" transform="translate(1556.296875 0)"/>
     <use xlink:href="#DejaVuSans-Bold-1b" transform="translate(1594.28125 0)"/>
     <use xlink:href="#DejaVuSans-Bold-25" transform="translate(1663.859375 0)"/>
     <use xlink:href="#DejaVuSans-Bold-3" transform="translate(1740.078125 0)"/>
     <use xlink:href="#DejaVuSans-Bold-52" transform="translate(1774.890625 0)"/>
     <use xlink:href="#DejaVuSans-Bold-51" transform="translate(1843.59375 0)"/>
     <use xlink:href="#DejaVuSans-Bold-3" transform="translate(1914.78125 0)"/>
     <use xlink:href="#DejaVuSans-Bold-52" transform="translate(1949.59375 0)"/>
     <use xlink:href="#DejaVuSans-Bold-51" transform="translate(2018.296875 0)"/>
     <use xlink:href="#DejaVuSans-Bold-48" transform="translate(2089.484375 0)"/>
     <use xlink:href="#DejaVuSans-Bold-3" transform="translate(2157.3125 0)"/>
     <use xlink:href="#DejaVuSans-Bold-35" transform="translate(2192.125 0)"/>
     <use xlink:href="#DejaVuSans-Bold-37" transform="translate(2264.640625 0)"/>
     <use xlink:href="#DejaVuSans-Bold-3b" transform="translate(2332.859375 0)"/>
     <use xlink:href="#DejaVuSans-Bold-3" transform="translate(2409.953125 0)"/>
     <use xlink:href="#DejaVuSans-Bold-17" transform="translate(2444.765625 0)"/>
     <use xlink:href="#DejaVuSans-Bold-13" transform="translate(2514.34375 0)"/>
     <use xlink:href="#DejaVuSans-Bold-19" transform="translate(2583.921875 0)"/>
     <use xlink:href="#DejaVuSans-Bold-13" transform="translate(2653.5 0)"/>
     <use xlink:href="#DejaVuSans-Bold-3" transform="translate(2723.078125 0)"/>
     <use xlink:href="#DejaVuSans-Bold-37" transform="translate(2757.890625 0)"/>
     <use xlink:href="#DejaVuSans-Bold-4c" transform="translate(2826.109375 0)"/>
    </g>
   </g>
   <g id="legend_1">
    <g id="text_14">
     <!-- precision -->
     <g transform="translate(56.012695 56.988672) scale(0.085 -0.085)">
      <use xlink:href="#DejaVuSans-53"/>
      <use xlink:href="#DejaVuSans-55" transform="translate(63.484375 0)"/>
      <use xlink:href="#DejaVuSans-48" transform="translate(102.390625 0)"/>
      <use xlink:href="#DejaVuSans-46" transform="translate(163.921875 0)"/>
      <use xlink:href="#DejaVuSans-4c" transform="translate(218.90625 0)"/>
      <use xlink:href="#DejaVuSans-56" transform="translate(246.6875 0)"/>
      <use xlink:href="#DejaVuSans-4c" transform="translate(298.78125 0)"/>
      <use xlink:href="#DejaVuSans-52" transform="translate(326.5625 0)"/>
      <use xlink:href="#DejaVuSans-51" transform="translate(387.75 0)"/>
     </g>
    </g>
    <g id="line2d_18">
     <path d="M 53.552344 66.764336 
L 62.052344 66.764336 
L 70.552344 66.764336 
" style="fill: none; stroke: #2a78d6; stroke-width: 2; stroke-linecap: square"/>
     <g>
      <use xlink:href="#m930839e6f5" x="62.052344" y="66.764336" style="fill: #2a78d6; stroke: #fcfcfb; stroke-width: 1.5"/>
     </g>
    </g>
    <g id="text_15">
     <!-- bf16 -->
     <g transform="translate(77.352344 69.739336) scale(0.085 -0.085)">
      <defs>
       <path id="DejaVuSans-49" d="M 2375 4863 
L 2375 4384 
L 1825 4384 
Q 1516 4384 1395 4259 
Q 1275 4134 1275 3809 
L 1275 3500 
L 2222 3500 
L 2222 3053 
L 1275 3053 
L 1275 0 
L 697 0 
L 697 3053 
L 147 3053 
L 147 3500 
L 697 3500 
L 697 3744 
Q 697 4328 969 4595 
Q 1241 4863 1831 4863 
L 2375 4863 
z
" transform="scale(0.015625)"/>
      </defs>
      <use xlink:href="#DejaVuSans-45"/>
      <use xlink:href="#DejaVuSans-49" transform="translate(63.484375 0)"/>
      <use xlink:href="#DejaVuSans-14" transform="translate(98.6875 0)"/>
      <use xlink:href="#DejaVuSans-19" transform="translate(162.3125 0)"/>
     </g>
    </g>
    <g id="line2d_19">
     <path d="M 53.552344 79.515 
L 62.052344 79.515 
L 70.552344 79.515 
" style="fill: none; stroke: #eb6834; stroke-width: 2; stroke-linecap: square"/>
     <g>
      <use xlink:href="#m38d7cd4c43" x="62.052344" y="79.515" style="fill: #eb6834; stroke: #fcfcfb; stroke-width: 1.5"/>
     </g>
    </g>
    <g id="text_16">
     <!-- FP8 -->
     <g transform="translate(77.352344 82.49) scale(0.085 -0.085)">
      <defs>
       <path id="DejaVuSans-29" d="M 628 4666 
L 3309 4666 
L 3309 4134 
L 1259 4134 
L 1259 2759 
L 3109 2759 
L 3109 2228 
L 1259 2228 
L 1259 0 
L 628 0 
L 628 4666 
z
" transform="scale(0.015625)"/>
       <path id="DejaVuSans-33" d="M 1259 4147 
L 1259 2394 
L 2053 2394 
Q 2494 2394 2734 2622 
Q 2975 2850 2975 3272 
Q 2975 3691 2734 3919 
Q 2494 4147 2053 4147 
L 1259 4147 
z
M 628 4666 
L 2053 4666 
Q 2838 4666 3239 4311 
Q 3641 3956 3641 3272 
Q 3641 2581 3239 2228 
Q 2838 1875 2053 1875 
L 1259 1875 
L 1259 0 
L 628 0 
L 628 4666 
z
" transform="scale(0.015625)"/>
      </defs>
      <use xlink:href="#DejaVuSans-29"/>
      <use xlink:href="#DejaVuSans-33" transform="translate(57.515625 0)"/>
      <use xlink:href="#DejaVuSans-1b" transform="translate(117.8125 0)"/>
     </g>
    </g>
    <g id="line2d_20">
     <path d="M 53.552344 92.265664 
L 62.052344 92.265664 
L 70.552344 92.265664 
" style="fill: none; stroke: #1baf7a; stroke-width: 2; stroke-linecap: square"/>
     <g>
      <use xlink:href="#m484a3abcc5" x="62.052344" y="92.265664" style="fill: #1baf7a; stroke: #fcfcfb; stroke-width: 1.5"/>
     </g>
    </g>
    <g id="text_17">
     <!-- INT4 -->
     <g transform="translate(77.352344 95.240664) scale(0.085 -0.085)">
      <defs>
       <path id="DejaVuSans-2c" d="M 628 4666 
L 1259 4666 
L 1259 0 
L 628 0 
L 628 4666 
z
" transform="scale(0.015625)"/>
       <path id="DejaVuSans-31" d="M 628 4666 
L 1478 4666 
L 3547 763 
L 3547 4666 
L 4159 4666 
L 4159 0 
L 3309 0 
L 1241 3903 
L 1241 0 
L 628 0 
L 628 4666 
z
" transform="scale(0.015625)"/>
       <path id="DejaVuSans-37" d="M -19 4666 
L 3928 4666 
L 3928 4134 
L 2272 4134 
L 2272 0 
L 1638 0 
L 1638 4134 
L -19 4134 
L -19 4666 
z
" transform="scale(0.015625)"/>
      </defs>
      <use xlink:href="#DejaVuSans-2c"/>
      <use xlink:href="#DejaVuSans-31" transform="translate(29.5 0)"/>
      <use xlink:href="#DejaVuSans-37" transform="translate(104.3125 0)"/>
      <use xlink:href="#DejaVuSans-17" transform="translate(165.390625 0)"/>
     </g>
    </g>
   </g>
  </g>
 </g>
 <defs>
  <clipPath id="p7cb661072b">
   <rect x="45.902344" y="42.88" width="483.297656" height="236.62"/>
  </clipPath>
 </defs>
</svg>
